<?xml version="1.0" encoding="utf-8"?>
<!-- Generator: Adobe Illustrator 15.0.0, SVG Export Plug-In . SVG Version: 6.00 Build 0)  -->
<!DOCTYPE svg PUBLIC "-//W3C//DTD SVG 1.1//EN" "http://www.w3.org/Graphics/SVG/1.1/DTD/svg11.dtd" [
	<!ENTITY ns_flows "http://ns.adobe.com/Flows/1.0/">
	<!ENTITY ns_extend "http://ns.adobe.com/Extensibility/1.0/">
	<!ENTITY ns_ai "http://ns.adobe.com/AdobeIllustrator/10.0/">
	<!ENTITY ns_graphs "http://ns.adobe.com/Graphs/1.0/">
]>
<svg version="1.1" id="Layer_1" xmlns:x="&ns_extend;" xmlns:i="&ns_ai;" xmlns:graph="&ns_graphs;"
	 xmlns="http://www.w3.org/2000/svg" xmlns:xlink="http://www.w3.org/1999/xlink" xmlns:a="http://ns.adobe.com/AdobeSVGViewerExtensions/3.0/"
	 x="0px" y="0px" width="500px" height="500px" viewBox="0 0 500 500" enable-background="new 0 0 500 500" xml:space="preserve">
<path fill="#FFFFFF" d="M160.77,201.109h3.828v14.302h0.132c0.792-1.144,1.584-2.2,2.332-3.168l9.065-11.133h4.753l-10.738,12.585
	l11.574,17.075h-4.533l-9.77-14.566l-2.816,3.256v11.31h-3.828V201.109z"/>
<path fill="#FFFFFF" d="M239.532,215.631c0,10.209-6.205,15.622-13.774,15.622c-7.833,0-13.333-6.073-13.333-15.05
	c0-9.417,5.853-15.579,13.774-15.579C234.296,200.625,239.532,206.83,239.532,215.631z M216.517,216.115
	c0,6.337,3.433,12.014,9.461,12.014c6.073,0,9.505-5.589,9.505-12.322c0-5.896-3.081-12.058-9.461-12.058
	C219.686,203.749,216.517,209.602,216.517,216.115z"/>
<path fill="#FFFFFF" d="M244.501,201.461c1.848-0.308,4.269-0.572,7.349-0.572c3.785,0,6.557,0.88,8.317,2.464
	c1.628,1.408,2.597,3.564,2.597,6.205c0,2.684-0.792,4.796-2.289,6.337c-2.023,2.156-5.324,3.256-9.064,3.256
	c-1.145,0-2.201-0.044-3.081-0.264v11.882h-3.828V201.461z M248.329,215.763c0.836,0.22,1.893,0.308,3.169,0.308
	c4.62,0,7.437-2.244,7.437-6.337c0-3.917-2.772-5.809-6.997-5.809c-1.672,0-2.948,0.132-3.608,0.308V215.763z"/>
<path fill="#FFFFFF" d="M293.257,215.631c0,10.209-6.205,15.622-13.774,15.622c-7.833,0-13.334-6.073-13.334-15.05
	c0-9.417,5.854-15.579,13.774-15.579C288.02,200.625,293.257,206.83,293.257,215.631z M270.241,216.115
	c0,6.337,3.433,12.014,9.462,12.014c6.072,0,9.505-5.589,9.505-12.322c0-5.896-3.08-12.058-9.461-12.058
	C273.41,203.749,270.241,209.602,270.241,216.115z"/>
<path fill="#FFFFFF" d="M298.225,201.109h3.828v26.448h12.674v3.212h-16.502V201.109z"/>
<path fill="#FFFFFF" d="M323.789,221.439l-3.081,9.33h-3.96l10.077-29.66h4.62l10.122,29.66h-4.093l-3.168-9.33H323.789z
	 M333.514,218.447l-2.904-8.537c-0.66-1.937-1.1-3.697-1.54-5.413h-0.088c-0.44,1.76-0.924,3.564-1.496,5.369l-2.904,8.581H333.514z
	"/>
<path fill="#FFFFFF" d="M1106.26,1303.084c-1.707,1.57-3.98,2.535-6.482,2.535c-2.504,0-4.777-0.965-6.486-2.535
	c-1.906-1.754-3.109-4.264-3.109-7.059c0-0.596,0.063-1.174,0.166-1.74c0.82-4.465,4.727-7.854,9.43-7.854s8.607,3.389,9.428,7.854
	c0.104,0.566,0.166,1.145,0.166,1.74C1109.371,1298.82,1108.168,1301.33,1106.26,1303.084L1106.26,1303.084z M1099.775,1263.889
	c-17.75,0-32.139,14.387-32.139,32.137c0,17.755,14.389,32.145,32.139,32.145c17.748,0,32.135-14.39,32.135-32.145
	C1131.91,1278.275,1117.523,1263.889,1099.775,1263.889L1099.775,1263.889z"/>
<path fill="#FFFFFF" d="M852.462,1303.082c-1.708,1.57-3.981,2.535-6.483,2.535s-4.777-0.965-6.485-2.535
	c-1.907-1.754-3.109-4.264-3.109-7.059c0-0.596,0.063-1.174,0.165-1.74c0.251-1.366,0.794-2.63,1.557-3.729
	c1.732-2.49,4.61-4.125,7.873-4.125c3.265,0,6.141,1.635,7.873,4.125c0.762,1.099,1.304,2.362,1.555,3.729
	c0.104,0.566,0.167,1.145,0.167,1.74C855.573,1298.818,854.369,1301.328,852.462,1303.082L852.462,1303.082z M877.643,1290.555
	c-2.595-15.117-15.742-26.629-31.588-26.666h-0.156c-15.849,0.037-28.994,11.549-31.586,26.666
	c-0.307,1.778-0.475,3.604-0.475,5.469c0,17.757,14.389,32.137,32.139,32.137c17.748,0,32.139-14.38,32.139-32.137
	C878.115,1294.159,877.947,1292.333,877.643,1290.555L877.643,1290.555z"/>
<path fill="#FFFFFF" d="M834.434,1263.889h-27.099v26.666h4.954c0.02-0.113,0.031-0.226,0.051-0.338
	C814.473,1277.788,823.118,1267.936,834.434,1263.889L834.434,1263.889z"/>
<path fill="#FFFFFF" d="M1164.8,1274.938c-8.319,0.287-16.78,0.287-25.09,0.145c-0.149-5.018-0.149-9.891,0-14.909
	c8.31-0.146,16.63-0.146,24.94,0C1164.939,1265.191,1164.939,1270.064,1164.8,1274.938L1164.8,1274.938z M1088.018,1216.268
	c-0.133-14.266-0.404-28.532,0.137-42.795c9.553,0,19.244-0.137,28.799,0.267c3.766,14.132,8.347,28.128,12.107,42.392
	C1115.336,1216.4,1101.744,1216.268,1088.018,1216.268L1088.018,1216.268z M1166.34,1273.867c-0.13-14.67,0.28-29.204-0.27-43.875
	c-4.681-2.141-9.4-4.29-14.12-6.487c-3.29-1.53-6.57-3.079-9.83-4.683c-0.44-0.17-0.84-0.368-1.23-0.577
	c-6.67-3.581-6.449-12.576-9-18.935c-2.63-10.791-6.979-21.281-9.619-32.054c-1.673-6.825-2.661-13.767-2.087-20.97
	c-19.182-0.271-38.232-0.137-57.281-0.001c-0.063,0-0.125,0-0.186,0.001c0,0.012,0,0.023,0,0.034l-8.566-7.388l-1.061-0.914
	l-150.398-129.727c-3.729-3.222-9.377-2.801-12.598,0.934c-3.229,3.733-2.822,9.379,0.92,12.61l13.385,11.552v104.631v20.85h-84.058
	c-7.192,0-13.006,5.831-13.006,12.991v75.192c0,7.18,5.813,13.012,13.006,13.012h209.522c7.174,0,13.016-5.832,13.016-13.012
	v-75.192c0-7.16-5.842-12.991-13.016-12.991h-115.42v-20.85v-95.969l111.273,95.969l28.434,24.522l8.564,7.386
	c-0.064,31.307-0.32,62.651-0.01,93.961H857.52c11.315,4.047,19.961,13.899,22.094,26.328c0.02,0.112,0.033,0.225,0.051,0.338
	h183.455c4.713-14.938,16.42-29.338,33.244-30.281c18.57-2.691,35.797,11.576,39.837,29.339c12.25,0.136,24.489,0.136,36.739,0.136
	c0-5.116,0.131-10.363,0.131-15.479C1170.78,1274.135,1168.63,1274,1166.34,1273.867L1166.34,1273.867z"/>
<polygon fill="#FFFFFF" points="1671.46,366.979 1561.93,314.765 1465.97,375.352 1448.23,375.352 1448.42,464.295 1689.72,464.295 
	1689.72,375.382 1672.52,375.382 1671.46,366.979 "/>
<path fill="#FFFFFF" d="M1740.66,509.855c-1.71,1.57-3.99,2.535-6.49,2.535s-4.77-0.965-6.48-2.535
	c-1.909-1.754-3.109-4.264-3.109-7.057c0-0.599,0.06-1.176,0.16-1.742c0.82-4.465,4.729-7.854,9.43-7.854
	c4.71,0,8.61,3.389,9.43,7.854c0.101,0.566,0.17,1.144,0.17,1.742C1743.77,505.592,1742.561,508.102,1740.66,509.855
	L1740.66,509.855z M1734.17,470.659c-17.75,0-32.14,14.39-32.14,32.14s14.39,32.139,32.14,32.139s32.141-14.389,32.141-32.139
	S1751.92,470.659,1734.17,470.659L1734.17,470.659z"/>
<path fill="#FFFFFF" d="M1486.86,509.854c-1.71,1.57-3.98,2.535-6.48,2.535c-2.51,0-4.78-0.965-6.49-2.535
	c-1.909-1.754-3.109-4.264-3.109-7.058c0-0.598,0.06-1.175,0.159-1.741c0.261-1.365,0.801-2.629,1.561-3.729
	c1.73-2.491,4.61-4.125,7.88-4.125c3.26,0,6.13,1.634,7.87,4.125c0.76,1.1,1.3,2.363,1.55,3.729c0.11,0.566,0.17,1.144,0.17,1.741
	C1489.97,505.59,1488.76,508.1,1486.86,509.854L1486.86,509.854z M1480.45,470.659h-0.15c-15.85,0.037-29,11.549-31.59,26.667
	c-0.31,1.779-0.479,3.605-0.479,5.47c0,17.751,14.39,32.14,32.14,32.14s32.14-14.389,32.14-32.14c0-1.864-0.17-3.69-0.47-5.47
	C1509.439,482.208,1496.3,470.696,1480.45,470.659L1480.45,470.659z"/>
<path fill="#FFFFFF" d="M1468.83,470.659h-27.1v26.667h4.949c0.021-0.111,0.04-0.225,0.061-0.338
	C1448.87,484.561,1457.51,474.706,1468.83,470.659L1468.83,470.659z"/>
<path fill="#FFFFFF" d="M1799.189,481.709c-8.31,0.287-16.77,0.287-25.09,0.145c-0.14-5.019-0.14-9.891,0-14.909
	c8.32-0.146,16.631-0.146,24.95,0C1799.33,471.963,1799.33,476.835,1799.189,481.709L1799.189,481.709z M1722.41,423.038
	c-0.13-14.265-0.4-28.531,0.14-42.795c9.55,0,19.24-0.136,28.8,0.268c3.761,14.132,8.34,28.128,12.11,42.392
	C1749.73,423.174,1736.141,423.038,1722.41,423.038L1722.41,423.038z M1800.74,480.639c-0.141-14.67,0.27-29.203-0.271-43.875
	c-4.68-2.141-9.409-4.289-14.13-6.488c-3.279-1.529-6.57-3.079-9.83-4.682c-0.43-0.17-0.84-0.367-1.22-0.576
	c-6.67-3.582-6.46-12.576-9-18.937c-2.64-10.791-6.99-21.28-9.62-32.053c-1.68-6.826-2.67-13.767-2.09-20.97
	c-19.18-0.271-38.23-0.137-57.28-0.001c-0.06,0-0.13,0-0.189,0.001c0,0.012,0,0.022,0,0.035l-0.101-0.086v23.608l0.101,0.083
	c-0.061,31.307-0.32,62.652-0.011,93.96h-205.18c11.311,4.047,19.96,13.901,22.09,26.329c0.021,0.113,0.03,0.227,0.051,0.338
	h183.449c4.721-14.938,16.42-29.339,33.25-30.279c18.57-2.693,35.801,11.573,39.83,29.338c12.25,0.135,24.5,0.135,36.74,0.135
	c0-5.116,0.14-10.364,0.14-15.479C1805.18,480.905,1803.03,480.771,1800.74,480.639L1800.74,480.639z"/>
<path fill="#FFFFFF" d="M1008.904,444.008c0,4.221-3.434,7.649-7.654,7.649h-5.098c-4.221,0-7.635-3.429-7.635-7.649v-88.545
	c0-4.227,3.414-7.642,7.635-7.642h5.098c4.221,0,7.654,3.415,7.654,7.642V444.008L1008.904,444.008z M974.625,444.008
	c0,4.221-3.428,7.649-7.654,7.649h-5.084c-4.227,0-7.643-3.429-7.643-7.649v-88.545c0-4.227,3.416-7.642,7.643-7.642h5.084
	c4.227,0,7.654,3.415,7.654,7.642V444.008L974.625,444.008z M940.354,444.008c0,4.221-3.434,7.649-7.648,7.649h-5.098
	c-4.219,0-7.648-3.429-7.648-7.649v-88.545c0-4.227,3.43-7.642,7.648-7.642h5.098c4.215,0,7.648,3.415,7.648,7.642V444.008
	L940.354,444.008z M906.082,444.008c0,4.221-3.428,7.649-7.656,7.649h-5.09c-4.229,0-7.635-3.429-7.635-7.649v-88.545
	c0-4.227,3.406-7.642,7.635-7.642h5.09c4.229,0,7.656,3.415,7.656,7.642V444.008L906.082,444.008z M871.809,444.008
	c0,4.221-3.434,7.649-7.654,7.649h-5.092c-4.221,0-7.648-3.429-7.648-7.649v-88.545c0-4.227,3.428-7.642,7.648-7.642h5.092
	c4.221,0,7.654,3.415,7.654,7.642V444.008L871.809,444.008z M837.529,444.008c0,4.221-3.422,7.649-7.641,7.649h-5.1
	c-4.225,0-7.627-3.429-7.627-7.649v-88.545c0-4.227,3.402-7.642,7.627-7.642h5.1c4.219,0,7.641,3.415,7.641,7.642V444.008
	L837.529,444.008z M1011.762,337.624h-197.48c-4.207,0-7.643,3.421-7.643,7.642v112.762c0,4.213,3.436,7.641,7.643,7.641h197.48
	c4.232,0,7.646-3.428,7.646-7.641V345.266C1019.408,341.045,1015.994,337.624,1011.762,337.624L1011.762,337.624z"/>
<path fill="#FFFFFF" d="M1069.092,509.855c-1.707,1.57-3.98,2.535-6.482,2.535c-2.504,0-4.777-0.965-6.486-2.535
	c-1.906-1.754-3.109-4.264-3.109-7.057c0-0.599,0.063-1.176,0.166-1.742c0.82-4.465,4.727-7.854,9.43-7.854
	c4.704,0,8.607,3.389,9.428,7.854c0.104,0.566,0.166,1.144,0.166,1.742C1072.203,505.592,1071,508.102,1069.092,509.855
	L1069.092,509.855z M1062.607,470.659c-17.75,0-32.139,14.39-32.139,32.14s14.389,32.139,32.139,32.139
	c17.748,0,32.139-14.389,32.139-32.139S1080.355,470.659,1062.607,470.659L1062.607,470.659z"/>
<path fill="#FFFFFF" d="M850.848,509.855c-1.709,1.57-3.981,2.535-6.483,2.535c-2.505,0-4.778-0.965-6.486-2.535
	c-1.907-1.754-3.108-4.264-3.108-7.059c0-0.598,0.062-1.175,0.164-1.74c0.252-1.367,0.795-2.631,1.558-3.729
	c1.731-2.491,4.61-4.125,7.873-4.125c3.264,0,6.14,1.634,7.87,4.125c0.764,1.099,1.306,2.362,1.557,3.729
	c0.104,0.565,0.167,1.143,0.167,1.74C853.958,505.592,852.754,508.102,850.848,509.855L850.848,509.855z M844.438,470.66h-0.153
	c-15.849,0.037-28.995,11.549-31.589,26.667c-0.305,1.778-0.473,3.604-0.473,5.47c0,17.752,14.389,32.139,32.139,32.139
	c17.748,0,32.139-14.387,32.139-32.139c0-1.865-0.168-3.691-0.475-5.47C873.434,482.209,860.286,470.697,844.438,470.66
	L844.438,470.66z"/>
<path fill="#FFFFFF" d="M832.816,470.66H805.72v26.667h4.954c0.018-0.112,0.031-0.226,0.051-0.338
	C812.855,484.561,821.503,474.707,832.816,470.66L832.816,470.66z"/>
<path fill="#FFFFFF" d="M1127.63,481.709c-8.317,0.287-16.776,0.287-25.091,0.145c-0.145-5.019-0.145-9.891,0-14.909
	c8.314-0.146,16.631-0.146,24.941,0C1127.771,471.963,1127.771,476.835,1127.63,481.709L1127.63,481.709z M1050.85,423.038
	c-0.133-14.265-0.404-28.531,0.137-42.795c9.553,0,19.244-0.136,28.799,0.268c3.766,14.132,8.344,28.128,12.111,42.392
	C1078.168,423.174,1064.576,423.038,1050.85,423.038L1050.85,423.038z M1129.17,480.639c-0.13-14.67,0.28-29.203-0.27-43.875
	c-4.681-2.141-9.4-4.289-14.119-6.488c-3.287-1.529-6.57-3.079-9.83-4.682c-0.438-0.17-0.84-0.367-1.229-0.576
	c-6.668-3.582-6.455-12.576-9-18.937c-2.635-10.791-6.982-21.28-9.621-32.053c-1.672-6.826-2.66-13.767-2.086-20.97
	c-19.182-0.271-38.232-0.137-57.281-0.001c-0.063,0-0.125,0-0.186,0.001c0,0.012,0,0.022,0,0.035l-0.098-0.086v23.608l0.096,0.083
	c-0.064,31.307-0.32,62.652-0.01,93.96l-169.635,0.001c11.317,4.047,19.964,13.9,22.096,26.329c0.02,0.112,0.032,0.226,0.051,0.338
	l147.902-0.001c4.713-14.938,16.42-29.339,33.244-30.279c18.57-2.693,35.797,11.573,39.832,29.338
	c12.25,0.135,24.492,0.135,36.743,0.135c0-5.116,0.13-10.364,0.13-15.479C1133.62,480.905,1131.46,480.771,1129.17,480.639
	L1129.17,480.639z"/>
<polygon fill="#FFFFFF" points="336.98,747.482 336.98,831.003 121.779,831.003 121.779,722.488 130.314,722.488 160.797,819.421 
	298.574,819.421 325.398,748.702 319.911,744.434 319.911,737.729 336.98,737.729 336.98,747.482 "/>
<polygon fill="#FFFFFF" points="314.424,756.628 290.646,811.495 251.021,811.495 182.266,789.176 151.652,753.579 175.428,690.475 
	217.492,690.475 283.333,715.171 314.424,744.434 314.424,756.628 "/>
<polygon fill="#FFFFFF" points="169.941,690.475 147.385,746.264 137.631,718.37 145.555,696.273 169.941,690.475 "/>
<path fill="#FFFFFF" d="M384.373,873.917c-1.707,1.57-3.98,2.535-6.482,2.535c-2.504,0-4.777-0.965-6.486-2.535
	c-1.906-1.754-3.109-4.265-3.109-7.057c0-0.597,0.063-1.175,0.166-1.742c0.82-4.466,4.727-7.853,9.43-7.853s8.607,3.387,9.428,7.853
	c0.104,0.567,0.166,1.146,0.166,1.742C387.484,869.652,386.281,872.163,384.373,873.917L384.373,873.917z M377.889,834.723
	c-17.75,0-32.139,14.387-32.139,32.138c0,17.75,14.389,32.139,32.139,32.139c17.748,0,32.139-14.389,32.139-32.139
	C410.027,849.109,395.637,834.723,377.889,834.723L377.889,834.723z"/>
<path fill="#FFFFFF" d="M442.91,845.771c-8.316,0.287-16.775,0.287-25.09,0.144c-0.145-5.017-0.145-9.892,0-14.908
	c8.314-0.146,16.631-0.146,24.943,0C443.051,836.023,443.051,840.898,442.91,845.771L442.91,845.771z M366.131,787.1
	c-0.133-14.264-0.404-28.53,0.137-42.795c9.553,0,19.244-0.135,28.799,0.269c3.766,14.132,8.344,28.128,12.111,42.392
	C393.449,787.235,379.857,787.1,366.131,787.1L366.131,787.1z M444.455,844.7c-0.133-14.67,0.273-29.203-0.27-43.875
	c-4.68-2.14-9.404-4.289-14.123-6.487c-3.287-1.529-6.57-3.08-9.83-4.682c-0.438-0.17-0.84-0.368-1.229-0.577
	c-6.668-3.581-6.455-12.576-9-18.937c-2.635-10.791-6.982-21.279-9.621-32.053c-1.672-6.826-2.66-13.766-2.086-20.969
	c-19.182-0.271-38.232-0.137-57.281-0.001c-0.063,0-0.125,0-0.186,0.001c0,0.012,0,0.021,0,0.034l-0.1-0.085v23.607l0.098,0.084
	c-0.064,31.307-0.32,62.651-0.01,93.961H171.184c11.316,4.047,19.963,13.899,22.095,26.33c0.02,0.11,0.032,0.224,0.051,0.338
	l147.903-0.002c4.713-14.938,16.42-29.338,33.244-30.281c18.57-2.692,35.797,11.576,39.832,29.339
	c12.25,0.135,24.496,0.135,36.742,0.135c0-5.114,0.135-10.362,0.135-15.478C448.896,844.969,446.746,844.833,444.455,844.7
	L444.455,844.7z"/>
<path fill="#FFFFFF" d="M318.511,175.452h-0.366v-1.053h3.912v1.053h-0.379v1.054h3.717c0,0,1.73,0.859,1.566,5.647
	c-0.167,4.785-1.423,5.932-1.423,5.932h-23.651c0,0-1.613-0.402-1.613-5.646c0-5.245,1.242-5.933,1.242-5.933H305v-0.928h-0.346
	v-1.179h2.509v1.053h-0.417v1.054h11.765"/>
<path fill="#FFFFFF" d="M331.928,192.57c-0.178,0.164-0.416,0.264-0.677,0.264c-0.262,0-0.497-0.1-0.675-0.264
	c-0.2-0.183-0.325-0.445-0.325-0.735c0-0.063,0.007-0.123,0.018-0.183c0.087-0.465,0.493-0.818,0.982-0.818
	c0.491,0,0.897,0.353,0.984,0.818c0.011,0.06,0.017,0.12,0.017,0.183C332.252,192.125,332.126,192.387,331.928,192.57
	L331.928,192.57z M331.251,188.483c-1.849,0-3.351,1.5-3.351,3.351c0,1.85,1.502,3.35,3.351,3.35c1.851,0,3.352-1.5,3.352-3.35
	C334.603,189.983,333.102,188.483,331.251,188.483L331.251,188.483z"/>
<path fill="#FFFFFF" d="M305.471,192.569c-0.18,0.165-0.416,0.265-0.678,0.265s-0.497-0.1-0.674-0.265
	c-0.201-0.182-0.325-0.444-0.325-0.736c0-0.062,0.007-0.122,0.017-0.181c0.025-0.143,0.082-0.274,0.163-0.388
	c0.179-0.261,0.48-0.43,0.819-0.43c0.342,0,0.641,0.169,0.822,0.43c0.078,0.114,0.136,0.245,0.163,0.388
	c0.01,0.059,0.017,0.119,0.017,0.181C305.795,192.125,305.669,192.387,305.471,192.569L305.471,192.569z M304.802,188.483h-0.017
	c-1.65,0.004-3.021,1.204-3.293,2.781c-0.032,0.184-0.049,0.375-0.049,0.569c0,1.851,1.502,3.351,3.35,3.351
	c1.852,0,3.353-1.5,3.353-3.351c0-0.194-0.019-0.385-0.051-0.569C307.824,189.687,306.455,188.487,304.802,188.483L304.802,188.483z
	"/>
<path fill="#FFFFFF" d="M303.592,188.483h-2.827v2.781h0.517c0.002-0.013,0.004-0.024,0.006-0.036
	C301.509,189.933,302.411,188.905,303.592,188.483L303.592,188.483z"/>
<path fill="#FFFFFF" d="M338.03,189.635c-0.868,0.03-1.75,0.03-2.616,0.015c-0.015-0.522-0.015-1.031,0-1.553
	c0.866-0.016,1.733-0.016,2.6,0C338.043,188.619,338.043,189.127,338.03,189.635L338.03,189.635z M330.026,183.52
	c-0.016-1.487-0.042-2.975,0.012-4.462c0.998,0,2.008-0.014,3.004,0.029c0.394,1.473,0.869,2.931,1.264,4.418
	C332.874,183.533,331.458,183.52,330.026,183.52L330.026,183.52z M338.19,189.523c-0.015-1.529,0.03-3.044-0.027-4.573
	c-0.486-0.224-0.98-0.447-1.474-0.677c-0.341-0.159-0.685-0.32-1.024-0.488c-0.044-0.018-0.086-0.038-0.128-0.06
	c-0.694-0.374-0.673-1.312-0.938-1.974c-0.274-1.126-0.728-2.219-1.002-3.342c-0.175-0.711-0.277-1.435-0.217-2.185
	c-2.001-0.028-3.986-0.015-5.972,0c-0.007,0-0.014,0-0.02,0c0,0.001,0,0.002,0,0.003l-0.011-0.009v2.462l0.011,0.008
	c-0.006,3.263-0.034,6.531-0.002,9.794h-21.39c1.179,0.421,2.081,1.449,2.302,2.745c0.003,0.012,0.005,0.023,0.007,0.036h19.125
	c0.491-1.558,1.712-3.059,3.466-3.158c1.936-0.281,3.731,1.207,4.15,3.059c1.278,0.015,2.554,0.015,3.831,0.015
	c0-0.533,0.015-1.081,0.015-1.614C338.654,189.551,338.429,189.538,338.19,189.523L338.19,189.523z"/>
<polygon fill="#FFFFFF" points="1441.17,743.373 1677.54,743.373 1677.54,716.419 1691.52,716.419 1691.52,829.439 1441.17,829.439 
	1441.17,743.373 "/>
<path fill="#FFFFFF" d="M1740.66,873.919c-1.71,1.57-3.98,2.535-6.49,2.535c-2.5,0-4.77-0.965-6.48-2.535
	c-1.909-1.754-3.109-4.264-3.109-7.059c0-0.597,0.06-1.173,0.16-1.74c0.82-4.465,4.729-7.853,9.43-7.853
	c4.71,0,8.61,3.388,9.43,7.853c0.11,0.567,0.17,1.144,0.17,1.74C1743.77,869.655,1742.561,872.165,1740.66,873.919L1740.66,873.919z
	 M1734.17,834.723c-17.75,0-32.14,14.387-32.14,32.138c0,17.752,14.39,32.139,32.14,32.139s32.141-14.387,32.141-32.139
	C1766.311,849.109,1751.92,834.723,1734.17,834.723L1734.17,834.723z"/>
<path fill="#FFFFFF" d="M1486.86,873.917c-1.71,1.57-3.98,2.535-6.48,2.535c-2.51,0-4.78-0.965-6.49-2.535
	c-1.909-1.754-3.109-4.265-3.109-7.06c0-0.596,0.06-1.172,0.17-1.739c0.25-1.367,0.79-2.631,1.55-3.728
	c1.73-2.492,4.61-4.125,7.88-4.125c3.26,0,6.14,1.633,7.87,4.125c0.76,1.097,1.3,2.36,1.55,3.728c0.11,0.567,0.17,1.144,0.17,1.739
	C1489.97,869.652,1488.77,872.163,1486.86,873.917L1486.86,873.917z M1480.45,834.723h-0.15c-15.85,0.037-29,11.549-31.59,26.668
	c-0.31,1.776-0.479,3.603-0.479,5.467c0,17.753,14.39,32.14,32.14,32.14s32.14-14.387,32.14-32.14c0-1.864-0.17-3.69-0.47-5.467
	C1509.45,846.271,1496.3,834.76,1480.45,834.723L1480.45,834.723z"/>
<path fill="#FFFFFF" d="M1468.83,834.723h-27.1v26.668h4.959c0.021-0.114,0.03-0.228,0.051-0.338
	C1448.87,848.622,1457.52,838.77,1468.83,834.723L1468.83,834.723z"/>
<path fill="#FFFFFF" d="M1799.189,845.773c-8.31,0.287-16.77,0.287-25.09,0.144c-0.14-5.019-0.14-9.894,0-14.91
	c8.32-0.145,16.631-0.145,24.95,0C1799.33,836.023,1799.33,840.898,1799.189,845.773L1799.189,845.773z M1722.41,787.102
	c-0.13-14.265-0.4-28.531,0.14-42.795c9.55,0,19.24-0.137,28.8,0.268c3.771,14.132,8.34,28.128,12.11,42.391
	C1749.73,787.236,1736.141,787.102,1722.41,787.102L1722.41,787.102z M1800.74,844.702c-0.13-14.67,0.27-29.204-0.271-43.875
	c-4.68-2.142-9.409-4.29-14.12-6.487c-3.289-1.531-6.569-3.08-9.83-4.683c-0.439-0.17-0.84-0.368-1.229-0.577
	c-6.67-3.581-6.46-12.577-9-18.936c-2.64-10.791-6.99-21.28-9.62-32.053c-1.68-6.826-2.66-13.767-2.09-20.97
	c-19.18-0.272-38.23-0.137-57.28-0.001c-0.06,0-0.13,0-0.189,0.001c0,0.011,0,0.022,0,0.034l-0.101-0.085v23.608l0.101,0.082
	c-0.061,31.308-0.32,62.652-0.011,93.961h-205.18c11.311,4.047,19.96,13.899,22.09,26.33c0.021,0.11,0.03,0.224,0.051,0.338h183.459
	c4.711-14.94,16.42-29.34,33.24-30.283c18.57-2.69,35.801,11.576,39.83,29.339c12.25,0.137,24.5,0.137,36.74,0.137
	c0-5.116,0.14-10.364,0.14-15.478C1805.18,844.969,1803.03,844.835,1800.74,844.702L1800.74,844.702z"/>
<polygon fill="#FFFFFF" points="157.549,1138.012 199.344,1138.012 199.344,1179.391 157.549,1179.391 157.549,1138.012 "/>
<path fill="#FFFFFF" d="M421.593,1303.085c-1.706,1.57-3.981,2.535-6.483,2.535c-2.504,0-4.776-0.965-6.485-2.535
	c-1.906-1.754-3.108-4.264-3.108-7.06c0-0.596,0.062-1.172,0.166-1.739c0.819-4.465,4.726-7.853,9.428-7.853
	c4.703,0,8.608,3.388,9.429,7.853c0.104,0.567,0.166,1.144,0.166,1.739C424.704,1298.821,423.501,1301.331,421.593,1303.085
	L421.593,1303.085z M415.107,1263.889c-17.75,0-32.138,14.387-32.138,32.137c0,17.755,14.388,32.145,32.138,32.145
	c17.748,0,32.14-14.39,32.14-32.145C447.247,1278.275,432.855,1263.889,415.107,1263.889L415.107,1263.889z"/>
<path fill="#FFFFFF" d="M167.796,1303.083c-1.709,1.57-3.98,2.535-6.482,2.535c-2.504,0-4.779-0.965-6.486-2.535
	c-1.908-1.754-3.109-4.264-3.109-7.06c0-0.596,0.063-1.172,0.164-1.739c0.252-1.367,0.795-2.631,1.559-3.728
	c1.73-2.492,4.609-4.125,7.873-4.125s6.139,1.633,7.871,4.125c0.762,1.097,1.305,2.36,1.555,3.728
	c0.104,0.567,0.168,1.144,0.168,1.739C170.907,1298.819,169.702,1301.329,167.796,1303.083L167.796,1303.083z M161.388,1263.889
	h-0.154c-15.85,0.037-28.996,11.549-31.588,26.668c-0.307,1.776-0.475,3.603-0.475,5.467c0,17.757,14.389,32.137,32.139,32.137
	c17.748,0,32.139-14.38,32.139-32.137c0-1.864-0.168-3.69-0.473-5.467C190.382,1275.438,177.235,1263.926,161.388,1263.889
	L161.388,1263.889z"/>
<path fill="#FFFFFF" d="M149.767,1263.889h-27.098v26.668h4.953c0.02-0.115,0.031-0.228,0.051-0.339
	C129.806,1277.788,138.452,1267.936,149.767,1263.889L149.767,1263.889z"/>
<path fill="#FFFFFF" d="M480.13,1274.939c-8.317,0.287-16.776,0.287-25.09,0.144c-0.144-5.019-0.144-9.892,0-14.91
	c8.313-0.145,16.631-0.145,24.942,0C480.271,1265.191,480.271,1270.064,480.13,1274.939L480.13,1274.939z M403.352,1216.268
	c-0.134-14.265-0.406-28.532,0.136-42.795c9.553,0,19.243-0.136,28.799,0.267c3.767,14.133,8.344,28.129,12.11,42.393
	C430.669,1216.4,417.077,1216.268,403.352,1216.268L403.352,1216.268z M481.675,1273.868c-0.133-14.67,0.273-29.205-0.271-43.875
	c-4.678-2.14-9.403-4.291-14.122-6.488c-3.287-1.528-6.57-3.079-9.83-4.682c-0.437-0.17-0.841-0.369-1.228-0.578
	c-6.668-3.58-6.455-12.576-9-18.935c-2.636-10.791-6.983-21.28-9.621-32.054c-0.026-0.104-0.047-0.206-0.073-0.311h-59.579v2.899
	l0.097,0.084c-0.065,31.306-0.319,62.649-0.01,93.959H172.853c11.316,4.047,19.963,13.899,22.094,26.329
	c0.02,0.111,0.033,0.224,0.051,0.339h183.455c4.713-14.94,16.42-29.34,33.244-30.283c18.571-2.69,35.797,11.576,39.831,29.339
	c12.25,0.137,24.496,0.137,36.744,0.137c0-5.117,0.134-10.364,0.134-15.478C486.116,1274.135,483.966,1274.001,481.675,1273.868
	L481.675,1273.868z"/>
<path fill="#FFFFFF" d="M295.956,1214.553v-12.394l-11.339-41.554h66.738L295.956,1214.553L295.956,1214.553z M213.098,1199.245
	v-54.867h60.381l15.82,54.867H213.098L213.098,1199.245z M169.718,1246.313h-7.646v-56.297h7.646V1246.313L169.718,1246.313z
	 M152.17,1246.313h-7.637v-56.297h7.637V1246.313L152.17,1246.313z M134.631,1246.313h-7.646v-56.297h7.646V1246.313
	L134.631,1246.313z M560.305,1187.438c0,0,0.01-0.006,0.016-0.008c0.277-2.822,1.98-5.224,4.402-6.471l0.061,0.014h6.689
	c1.557,0,2.842-1.291,2.842-2.863l2.783-17.119c0.069-0.124,0.123-0.258,0.186-0.385h13.891v-22.594H278.458h-71.437v45.196H121
	v70.707h53.217v6.558h121.739v-37.901l64.397-61.966h200.045c0.045,0.091,0.082,0.188,0.131,0.279l1.398,17.225l0.08,0.387
	c-3.135,2.104-5.219,5.678-5.219,9.73c0,1.125,0.17,2.203,0.473,3.223c0.069,0.24,0.143,0.48,0.229,0.712
	c0.011,0.028,0.023,0.06,0.033,0.087c0.064,0.169,0.139,0.333,0.209,0.498c0.153,0.343,0.35,0.73,0.586,1.141
	c0.277,0.489,0.582,0.959,0.92,1.403c0.525,0.617,2.726,3.032,5.664,4.037l0.006-0.005c0.279,0.092,0.566,0.176,0.854,0.251
	c0.004,0,0.006,0.001,0.008,0.002c0.869,0.226,1.774,0.366,2.721,0.366c0.072,0,0.145-0.01,0.218-0.012
	c0.015,0,0.026-0.002,0.04-0.002c1.587-0.035,3.092-0.392,4.455-0.99h0.001c1.657-0.741,4.063-2.279,5.682-5.322
	c0.837-1.612,1.313-3.438,1.313-5.389l-0.008-0.232h-3.475l0.014,0.232c0,0.696-0.098,1.361-0.263,2l0.003,0.008
	c-0.035,0.138-0.082,0.263-0.123,0.396c-0.035,0.117-0.068,0.236-0.109,0.353c-1.434,4.068-5.061,5.041-5.061,5.041l-0.031,0.006
	c-0.834,0.285-1.726,0.451-2.656,0.451c-0.669-0.043-1.266-0.145-1.832-0.271l-0.23-0.033l0.012-0.025
	c-2.453-0.61-3.94-1.946-4.825-3.407l-0.007,0.01c-0.028-0.044-0.049-0.093-0.076-0.138c-0.025-0.044-0.051-0.088-0.073-0.133
	c-0.747-1.241-1.194-2.689-1.194-4.256c0-0.144,0.022-0.282,0.03-0.424C560.294,1187.569,560.305,1187.438,560.305,1187.438
	L560.305,1187.438z"/>
<path fill="#FFFFFF" d="M1740.66,1303.084c-1.71,1.57-3.98,2.535-6.49,2.535c-2.5,0-4.77-0.965-6.48-2.535
	c-1.909-1.754-3.109-4.264-3.109-7.059c0-0.596,0.06-1.174,0.16-1.74c0.82-4.465,4.729-7.854,9.43-7.854
	c4.71,0,8.61,3.389,9.43,7.854c0.11,0.566,0.17,1.145,0.17,1.74C1743.77,1298.82,1742.561,1301.33,1740.66,1303.084
	L1740.66,1303.084z M1734.17,1263.889c-17.75,0-32.14,14.387-32.14,32.137c0,17.755,14.39,32.145,32.14,32.145
	s32.141-14.39,32.141-32.145C1766.311,1278.275,1751.92,1263.889,1734.17,1263.889L1734.17,1263.889z"/>
<path fill="#FFFFFF" d="M1486.86,1303.082c-1.71,1.57-3.98,2.535-6.48,2.535c-2.51,0-4.78-0.965-6.49-2.535
	c-1.909-1.754-3.109-4.264-3.109-7.059c0-0.596,0.06-1.174,0.17-1.74c0.25-1.366,0.79-2.63,1.55-3.729
	c1.73-2.49,4.61-4.125,7.88-4.125c3.26,0,6.14,1.635,7.87,4.125c0.76,1.099,1.3,2.362,1.55,3.729c0.11,0.566,0.17,1.145,0.17,1.74
	C1489.97,1298.818,1488.77,1301.328,1486.86,1303.082L1486.86,1303.082z M1480.45,1263.889h-0.15
	c-15.85,0.037-29,11.549-31.59,26.666c-0.31,1.778-0.479,3.604-0.479,5.469c0,17.757,14.39,32.137,32.14,32.137
	s32.14-14.38,32.14-32.137c0-1.864-0.17-3.69-0.47-5.469C1509.45,1275.438,1496.3,1263.926,1480.45,1263.889L1480.45,1263.889z"/>
<path fill="#FFFFFF" d="M1468.83,1263.889h-27.1v26.666h4.959c0.021-0.113,0.03-0.226,0.051-0.338
	C1448.87,1277.788,1457.52,1267.936,1468.83,1263.889L1468.83,1263.889z"/>
<path fill="#FFFFFF" d="M1799.189,1274.938c-8.31,0.287-16.77,0.287-25.09,0.145c-0.14-5.018-0.14-9.891,0-14.909
	c8.32-0.146,16.631-0.146,24.95,0C1799.33,1265.191,1799.33,1270.064,1799.189,1274.938L1799.189,1274.938z M1722.41,1216.268
	c-0.13-14.266-0.4-28.532,0.14-42.795c9.55,0,19.24-0.137,28.8,0.267c3.771,14.132,8.34,28.128,12.11,42.392
	C1749.73,1216.4,1736.141,1216.268,1722.41,1216.268L1722.41,1216.268z M1800.74,1273.867c-0.13-14.67,0.27-29.204-0.271-43.875
	c-4.68-2.141-9.409-4.29-14.12-6.487c-3.289-1.53-6.569-3.079-9.83-4.683c-0.439-0.17-0.84-0.368-1.229-0.577
	c-6.67-3.581-6.46-12.576-9-18.935c-2.64-10.791-6.99-21.281-9.62-32.054c-1.68-6.825-2.66-13.767-2.09-20.97
	c-19.18-0.271-38.23-0.137-57.28-0.001c-0.06,0-0.13,0-0.189,0.001c0,0.012,0,0.023,0,0.034l-0.101-0.085v23.609l0.101,0.082
	c-0.061,31.307-0.32,62.651-0.011,93.961h-205.18c11.311,4.047,19.96,13.899,22.09,26.328c0.021,0.112,0.03,0.225,0.051,0.338
	h183.459c4.711-14.938,16.42-29.338,33.24-30.281c18.57-2.691,35.801,11.576,39.83,29.339c12.25,0.136,24.5,0.136,36.74,0.136
	c0-5.116,0.14-10.363,0.14-15.479C1805.18,1274.135,1803.03,1274,1800.74,1273.867L1800.74,1273.867z"/>
<polygon fill="#FFFFFF" points="1441.17,1115.547 1441.17,1258.605 1691.52,1258.605 1691.52,1139.547 1751.6,1139.547 
	1751.6,1115.547 1441.17,1115.547 "/>
<path fill="#FFFFFF" d="M1570.76,1759.72c-13.22,0-23.939,10.721-23.939,23.95c0,13.22,10.72,23.95,23.939,23.95
	c13.23,0,23.95-10.73,23.95-23.95C1594.71,1770.44,1583.99,1759.72,1570.76,1759.72L1570.76,1759.72z"/>
<path fill="#FFFFFF" d="M1753.62,1759.72c-13.23,0-23.95,10.721-23.95,23.95c0,13.22,10.72,23.95,23.95,23.95
	c13.22,0,23.94-10.73,23.94-23.95C1777.561,1770.44,1766.84,1759.72,1753.62,1759.72L1753.62,1759.72z"/>
<path fill="#FFFFFF" d="M1692.67,1759.72c-13.23,0-23.95,10.721-23.95,23.95c0,13.22,10.72,23.95,23.95,23.95
	c13.22,0,23.94-10.73,23.94-23.95C1716.61,1770.44,1705.89,1759.72,1692.67,1759.72L1692.67,1759.72z"/>
<path fill="#FFFFFF" d="M1631.72,1759.72c-13.229,0-23.95,10.721-23.95,23.95c0,13.22,10.721,23.95,23.95,23.95
	c13.22,0,23.95-10.73,23.95-23.95C1655.67,1770.44,1644.939,1759.72,1631.72,1759.72L1631.72,1759.72z"/>
<path fill="#FFFFFF" d="M1756.439,1822.08h-188.39c-18.81,0-34.12-15.3-34.12-34.109c0-18.811,15.311-34.121,34.12-34.121h188.39
	c18.811,0,34.11,15.311,34.11,34.121C1790.55,1806.78,1775.25,1822.08,1756.439,1822.08L1756.439,1822.08z M1566.17,1674.74
	l40.87-27.82l19.38,27.82H1566.17L1566.17,1674.74z M1552.48,1669.21l-5.73-9.42l46.98-31.97l6.3,9.029L1552.48,1669.21
	L1552.48,1669.21z M1532.64,1636.59l45.591-31.029l8.489,12.18l-46.359,31.55L1532.64,1636.59L1532.64,1636.59z M1519.58,1615.1
	l44.3-30.14l7.33,10.53l-44.96,30.6L1519.58,1615.1L1519.58,1615.1z M1507.25,1594.84l43.08-29.33l6.53,9.37l-43.671,29.72
	L1507.25,1594.84L1507.25,1594.84z M1496.07,1576.45l41.979-28.57l5.271,7.56l-42.46,28.891L1496.07,1576.45L1496.07,1576.45z
	 M1484.95,1558.18l40.89-27.83l5.19,7.461l-41.341,28.14L1484.95,1558.18L1484.95,1558.18z M1472.13,1537.09l39.61-26.97l7.08,10.17
	l-40.25,27.39L1472.13,1537.09L1472.13,1537.09z M1459.811,1516.83l38.399-26.141l6.521,9.361l-38.99,26.539L1459.811,1516.83
	L1459.811,1516.83z M1446.61,1495.13l37.1-25.25l7.49,10.74l-37.771,25.71L1446.61,1495.13L1446.61,1495.13z M1434.29,1474.87
	l35.89-24.42l6.51,9.36l-36.459,24.81L1434.29,1474.87L1434.29,1474.87z M1427.91,1464.37l-5.01-8.229l34.76-23.66l5.5,7.899
	L1427.91,1464.37L1427.91,1464.37z M1421.3,1579.5h-5.18v-119.55l5.18,9.55V1579.5L1421.3,1579.5z M1411.57,1437.5v-1.75l33.3-21.63
	l5.78,8.29l-34.131,23.23L1411.57,1437.5L1411.57,1437.5z M1421.17,1639.27l40.97,47.221c-7.239,5.08-7.46,14.899-7.46,14.899
	h-72.199c0,0,0.5-11.669-8.53-16.14l40.229-46.359C1416.72,1639.39,1419.28,1639.42,1421.17,1639.27L1421.17,1639.27z
	 M1471.67,1692.75c7.27,0,8.63,8.64,8.63,8.64h-15.14C1465.16,1701.39,1464.38,1692.75,1471.67,1692.75L1471.67,1692.75z
	 M1473.189,1795.69c0,3.739-3.039,6.779-6.779,6.779h-4.51c-3.75,0-6.78-3.04-6.78-6.779v-78.49c0-3.75,3.03-6.771,6.78-6.771h4.51
	c3.74,0,6.779,3.021,6.779,6.771V1795.69L1473.189,1795.69z M1442.811,1795.69c0,3.739-3.041,6.779-6.78,6.779h-4.521
	c-3.74,0-6.779-3.04-6.779-6.779v-78.49c0-3.75,3.039-6.771,6.779-6.771h4.521c3.739,0,6.78,3.021,6.78,6.771V1795.69
	L1442.811,1795.69z M1412.43,1795.69c0,3.739-3.04,6.779-6.79,6.779h-4.51c-3.75,0-6.77-3.04-6.77-6.779v-78.49
	c0-3.75,3.02-6.771,6.77-6.771h4.51c3.75,0,6.79,3.021,6.79,6.771V1795.69L1412.43,1795.69z M1382.04,1795.69
	c0,3.739-3.04,6.779-6.78,6.779h-4.51c-3.75,0-6.79-3.04-6.79-6.779v-78.49c0-3.75,3.04-6.771,6.79-6.771h4.51
	c3.74,0,6.78,3.021,6.78,6.771V1795.69L1382.04,1795.69z M1364.92,1692.75c7.27,0,8.63,8.64,8.63,8.64h-15.14
	C1358.41,1701.39,1357.64,1692.75,1364.92,1692.75L1364.92,1692.75z M1710.17,1625.66h29.21v49.08h-64.45L1710.17,1625.66
	L1710.17,1625.66z M1485.51,1717.2c0-3.75,3.021-6.771,6.76-6.771h4.521c3.74,0,6.79,3.021,6.79,6.771v78.49
	c0,3.739-3.05,6.779-6.79,6.779h-4.521c-3.739,0-6.76-3.04-6.76-6.779V1717.2L1485.51,1717.2z M1351.66,1795.69
	c0,3.739-3.03,6.779-6.78,6.779h-4.52c-3.74,0-6.761-3.04-6.761-6.779v-78.49c0-3.75,3.021-6.771,6.761-6.771h4.52
	c3.75,0,6.78,3.021,6.78,6.771V1795.69L1351.66,1795.69z M1756.439,1736.93h-31.659V1720.9h52.78v-34.471v-11.689v-49.08v-28.05
	h-10.541v-4.771h-2.199c0.22-4.87,0.22-23.14-11.96-23.14c-12.181,0-11.28,18.27-10.83,23.14h-3.33v4.771h-55.41l-44.9,60.93
	l-191.76-259.021l-46.16,31.551l7.891,14.56v133.87h-11.65l6.729,30.8h9.83v4.65c0,0-8.539,1.56-8.539,13.97
	c0,3.48,1.399,5.84,3.43,7.431l-40.98,47.229c-0.46-0.03-0.92-0.05-1.39-0.05c-17.47,0-17.86,17.859-17.86,17.859h-16.89
	c-3.72,0-6.771,3.03-6.771,6.771v99.96c0,3.74,3.051,6.78,6.771,6.78h175.07c3.75,0,6.779-3.04,6.779-6.78v-99.96
	c0-3.74-3.029-6.771-6.779-6.771h-16.88c0,0,0.779-17.859-16.69-17.859c-1.601,0-3.05,0.149-4.38,0.42l-41.311-47.61
	c1.42-1.819,2.66-4.66,2.211-8.71l-2.33-0.77c0,0,0.26,5.43-6.471,5.43c-6.729,0-7.76-11.13,6.471-11.13v-10.86h7.77l6.72-30.8
	h-12.159v-95.68l125.67,231.83v5.25h42.66v16.029h-29.341c-28.14,0-51.03,22.9-51.03,51.041c0,28.14,22.891,51.029,51.03,51.029
	h188.39c28.141,0,51.03-22.89,51.03-51.029C1807.47,1759.83,1784.58,1736.93,1756.439,1736.93L1756.439,1736.93z"/>
<polygon fill="#FFFFFF" points="1055.786,1768.021 1055.786,1586.77 1027.134,1586.77 1027.134,1768.021 1027.134,1786.67 
	1027.134,1791.34 1175.72,1791.34 1175.72,1768.021 1055.786,1768.021 "/>
<path fill="#FFFFFF" d="M829.032,1804.71c-2.333,2.15-5.441,3.47-8.861,3.47c-3.423,0-6.53-1.319-8.866-3.47
	c-2.605-2.39-4.25-5.83-4.25-9.64c0-0.82,0.086-1.61,0.227-2.38c0.084-0.46,0.199-0.91,0.331-1.351
	c1.606-5.42,6.614-9.39,12.559-9.39s10.949,3.97,12.556,9.39c0.131,0.44,0.248,0.891,0.332,1.351c0.142,0.77,0.227,1.56,0.227,2.38
	C833.285,1798.88,831.641,1802.32,829.032,1804.71L829.032,1804.71z M863.932,1791.34c-1.894-22.52-20.759-40.21-43.764-40.21
	c-23.006,0-41.869,17.69-43.762,40.21c-0.104,1.23-0.17,2.471-0.17,3.73c0,24.26,19.669,43.93,43.932,43.93
	c24.262,0,43.934-19.67,43.934-43.93C864.102,1793.811,864.035,1792.57,863.932,1791.34L863.932,1791.34z"/>
<path fill="#FFFFFF" d="M978.649,1804.71c-2.334,2.15-5.441,3.47-8.862,3.47c-3.422,0-6.53-1.319-8.866-3.47
	c-2.606-2.39-4.251-5.83-4.251-9.64c0-0.82,0.086-1.61,0.227-2.38c0.084-0.46,0.201-0.91,0.332-1.351
	c1.607-5.42,6.613-9.39,12.559-9.39c5.946,0,10.95,3.97,12.558,9.39c0.131,0.44,0.245,0.891,0.331,1.351
	c0.141,0.77,0.227,1.56,0.227,2.38C982.902,1798.88,981.258,1802.32,978.649,1804.71L978.649,1804.71z M1013.55,1791.34
	c-1.896-22.52-20.761-40.21-43.765-40.21c-23.006,0-41.87,17.69-43.764,40.21c-0.104,1.23-0.168,2.471-0.168,3.73
	c0,24.26,19.668,43.93,43.932,43.93c24.261,0,43.933-19.67,43.933-43.93C1013.718,1793.811,1013.65,1792.57,1013.55,1791.34
	L1013.55,1791.34z"/>
<path fill="#FFFFFF" d="M977.824,1728.7h-76.627v-111.28h36.65h3.325l36.651,97.96V1728.7L977.824,1728.7z M861.882,1689.05h-25.317
	v-71.63h25.317V1689.05L861.882,1689.05z M1017.138,1728.7v-19.32l-51.308-130.6h-11.555v-6.171h-3.004
	c0.295-6.649,0.3-31.619-16.354-31.619c-16.652,0-15.426,24.97-14.806,31.619h-4.55v6.171h-78.998h-33.982v38.64v71.63h-38.648
	v102.29h8.36c1.912-24.75,22.644-44.31,47.874-44.31s45.963,19.56,47.874,44.31h25.823h5.994h22.052
	c1.91-24.75,22.646-44.31,47.874-44.31c25.228,0,45.964,19.56,47.873,44.31h4.809v-62.64H1017.138L1017.138,1728.7z"/>
<path fill="#FFFFFF" d="M1196.16,1738.42c0,4.22-2.23,7.65-4.971,7.65h-3.31c-2.74,0-4.96-3.431-4.96-7.65v-88.55
	c0-4.22,2.22-7.64,4.96-7.64h3.31c2.74,0,4.971,3.42,4.971,7.64V1738.42L1196.16,1738.42z M1173.91,1738.42
	c0,4.22-2.23,7.65-4.971,7.65h-3.3c-2.75,0-4.97-3.431-4.97-7.65v-88.55c0-4.22,2.22-7.64,4.97-7.64h3.3
	c2.74,0,4.971,3.42,4.971,7.64V1738.42L1173.91,1738.42z M1151.66,1738.42c0,4.22-2.23,7.65-4.971,7.65h-3.31
	c-2.74,0-4.96-3.431-4.96-7.65v-88.55c0-4.22,2.22-7.64,4.96-7.64h3.31c2.74,0,4.971,3.42,4.971,7.64V1738.42L1151.66,1738.42z
	 M1129.41,1738.42c0,4.22-2.23,7.65-4.97,7.65h-3.311c-2.743,0-4.954-3.431-4.954-7.65v-88.55c0-4.22,2.211-7.64,4.954-7.64h3.311
	c2.739,0,4.97,3.42,4.97,7.64V1738.42L1129.41,1738.42z M1107.156,1738.42c0,4.22-2.229,7.65-4.969,7.65h-3.305
	c-2.74,0-4.966-3.431-4.966-7.65v-88.55c0-4.22,2.226-7.64,4.966-7.64h3.305c2.74,0,4.969,3.42,4.969,7.64V1738.42L1107.156,1738.42
	z M1084.902,1738.42c0,4.22-2.221,7.65-4.96,7.65h-3.311c-2.743,0-4.951-3.431-4.951-7.65v-88.55c0-4.22,2.208-7.64,4.951-7.64
	h3.311c2.739,0,4.96,3.42,4.96,7.64V1738.42L1084.902,1738.42z M1198.01,1632.03h-128.199c-2.731,0-4.962,3.43-4.962,7.649v112.761
	c0,4.21,2.23,7.64,4.962,7.64h128.199c2.75,0,4.971-3.43,4.971-7.64V1639.68C1202.98,1635.46,1200.76,1632.03,1198.01,1632.03
	L1198.01,1632.03z"/>
<path fill="#FFFFFF" d="M294.098,1646.88v0.95h-90.353v-71.33h60.317l30.035,47.55V1646.88L294.098,1646.88z M378.27,1704.03
	c7.105,0,13.967,1.05,20.449,2.99v-11.641h-7.611v-48.5h-3.258l-11.957-20.93h-28.533l-53.262-92.25H155.24v36.14v6.66v110.521
	c12.827-7.61,27.783-12,43.75-12c47.415,0,85.99,38.569,85.99,85.989c0,7.9-1.094,15.551-3.101,22.83h25.404
	c-0.319-2.739-0.501-5.51-0.501-8.33C306.783,1736.09,338.852,1704.03,378.27,1704.03L378.27,1704.03z"/>
<path fill="#FFFFFF" d="M378.27,1800.5c-10.879,0-20.129-6.96-23.56-16.66c-0.919-2.609-1.425-5.41-1.425-8.33
	c0-13.8,11.186-24.979,24.984-24.979c8.459,0,15.929,4.2,20.449,10.63c2.855,4.06,4.536,9.01,4.536,14.35
	C403.255,1789.311,392.068,1800.5,378.27,1800.5L378.27,1800.5z M441.543,1770.52c-1.602-20.56-12.984-38.359-29.511-48.76
	c-4.14-2.609-8.603-4.75-13.313-6.35c-6.419-2.18-13.291-3.38-20.449-3.38c-35.063,0-63.486,28.42-63.486,63.479
	c0,2.83,0.203,5.601,0.561,8.33c4.079,31.12,30.688,55.16,62.926,55.16c35.063,0,63.487-28.42,63.487-63.49
	C441.757,1773.83,441.671,1772.17,441.543,1770.52L441.543,1770.52z"/>
<path fill="#FFFFFF" d="M529.923,1633.34c3.099,0,5.614,1.641,5.614,3.65v2.42c0,2.01-2.516,3.64-5.614,3.64h-64.979
	c-3.1,0-5.606-1.63-5.606-3.64v-2.42c0-2.01,2.507-3.65,5.606-3.65H529.923L529.923,1633.34z M529.923,1649.67
	c3.099,0,5.614,1.63,5.614,3.65v2.42c0,2.01-2.516,3.64-5.614,3.64h-64.979c-3.1,0-5.606-1.63-5.606-3.64v-2.42
	c0-2.021,2.507-3.65,5.606-3.65H529.923L529.923,1649.67z M529.923,1666c3.099,0,5.614,1.63,5.614,3.641v2.43
	c0,2.01-2.516,3.64-5.614,3.64h-64.979c-3.1,0-5.606-1.63-5.606-3.64v-2.43c0-2.011,2.507-3.641,5.606-3.641H529.923L529.923,1666z
	 M529.923,1682.33c3.099,0,5.614,1.63,5.614,3.641v2.43c0,2.01-2.516,3.64-5.614,3.64h-64.979c-3.1,0-5.606-1.63-5.606-3.64v-2.43
	c0-2.011,2.507-3.641,5.606-3.641H529.923L529.923,1682.33z M529.923,1698.65c3.099,0,5.614,1.64,5.614,3.649v2.431
	c0,2.01-2.516,3.64-5.614,3.64h-64.979c-3.1,0-5.606-1.63-5.606-3.64v-2.431c0-2.01,2.507-3.649,5.606-3.649H529.923
	L529.923,1698.65z M529.923,1714.98c3.099,0,5.614,1.63,5.614,3.649v2.42c0,2.021-2.516,3.641-5.614,3.641h-64.979
	c-3.1,0-5.606-1.62-5.606-3.641v-2.42c0-2.02,2.507-3.649,5.606-3.649H529.923L529.923,1714.98z M451.854,1631.98v94.08
	c0,2,2.511,3.64,5.607,3.64h82.75c3.092,0,5.607-1.64,5.607-3.64v-94.08c0-2.021-2.516-3.641-5.607-3.641h-82.75
	C454.364,1628.34,451.854,1629.96,451.854,1631.98L451.854,1631.98z"/>
<rect x="159" y="195.408" fill="#FFFFFF" width="183.667" height="3.258"/>
<g>
	<path fill="#FFFFFF" d="M188.146,187.363h0.879v6.071h2.909v0.737h-3.788V187.363z"/>
	<path fill="#FFFFFF" d="M196.438,190.979h-2.646v2.455h2.95v0.737h-3.829v-6.808h3.677v0.737h-2.798v2.151h2.646V190.979z"/>
	<path fill="#FFFFFF" d="M199.337,188.11h-2.071v-0.748h5.041v0.748h-2.081v6.061h-0.889V188.11z"/>
	<path fill="#FFFFFF" d="M202.882,193.1c0.394,0.243,0.97,0.444,1.576,0.444c0.899,0,1.424-0.475,1.424-1.162
		c0-0.636-0.364-1-1.283-1.354c-1.111-0.394-1.798-0.97-1.798-1.929c0-1.061,0.879-1.849,2.202-1.849
		c0.697,0,1.202,0.162,1.505,0.333l-0.243,0.717c-0.222-0.122-0.677-0.323-1.293-0.323c-0.929,0-1.283,0.555-1.283,1.02
		c0,0.636,0.414,0.95,1.354,1.313c1.152,0.445,1.737,1,1.737,2c0,1.05-0.778,1.959-2.384,1.959c-0.657,0-1.374-0.192-1.737-0.435
		L202.882,193.1z"/>
	<path fill="#FFFFFF" d="M214.881,193.949c-0.323,0.162-0.97,0.323-1.798,0.323c-1.919,0-3.364-1.212-3.364-3.445
		c0-2.131,1.444-3.576,3.556-3.576c0.849,0,1.384,0.182,1.616,0.303l-0.212,0.717c-0.333-0.161-0.808-0.283-1.374-0.283
		c-1.596,0-2.657,1.021-2.657,2.808c0,1.667,0.959,2.738,2.616,2.738c0.536,0,1.081-0.111,1.435-0.283L214.881,193.949z"/>
	<path fill="#FFFFFF" d="M215.981,187.363h0.879v6.071h2.909v0.737h-3.788V187.363z"/>
	<path fill="#FFFFFF" d="M224.274,190.979h-2.646v2.455h2.95v0.737h-3.829v-6.808h3.677v0.737h-2.798v2.151h2.646V190.979z"/>
	<path fill="#FFFFFF" d="M226.819,192.029l-0.707,2.142h-0.909l2.313-6.808h1.061l2.323,6.808h-0.939l-0.727-2.142H226.819z
		 M229.051,191.343l-0.667-1.96c-0.152-0.444-0.252-0.849-0.354-1.242h-0.021c-0.101,0.404-0.212,0.818-0.343,1.232l-0.667,1.97
		H229.051z"/>
	<path fill="#FFFFFF" d="M231.899,194.171v-6.808h0.96l2.182,3.444c0.505,0.798,0.899,1.515,1.222,2.212l0.021-0.01
		c-0.081-0.909-0.101-1.737-0.101-2.798v-2.848h0.828v6.808h-0.889l-2.162-3.455c-0.475-0.758-0.93-1.536-1.273-2.273l-0.03,0.01
		c0.05,0.858,0.071,1.677,0.071,2.808v2.909H231.899z"/>
	<path fill="#FFFFFF" d="M240.564,193.1c0.394,0.243,0.97,0.444,1.576,0.444c0.899,0,1.424-0.475,1.424-1.162
		c0-0.636-0.364-1-1.283-1.354c-1.111-0.394-1.798-0.97-1.798-1.929c0-1.061,0.879-1.849,2.202-1.849
		c0.697,0,1.202,0.162,1.505,0.333l-0.243,0.717c-0.222-0.122-0.677-0.323-1.293-0.323c-0.929,0-1.283,0.555-1.283,1.02
		c0,0.636,0.414,0.95,1.354,1.313c1.152,0.445,1.737,1,1.737,2c0,1.05-0.778,1.959-2.384,1.959c-0.657,0-1.374-0.192-1.737-0.435
		L240.564,193.1z"/>
	<path fill="#FFFFFF" d="M246.958,188.11h-2.071v-0.748h5.041v0.748h-2.081v6.061h-0.889V188.11z"/>
	<path fill="#FFFFFF" d="M251.563,187.363v4.03c0,1.525,0.677,2.172,1.586,2.172c1.01,0,1.656-0.667,1.656-2.172v-4.03h0.89v3.97
		c0,2.091-1.102,2.95-2.576,2.95c-1.394,0-2.444-0.798-2.444-2.909v-4.01H251.563z"/>
	<path fill="#FFFFFF" d="M257.219,187.363h3.667v0.737h-2.788v2.263h2.576v0.727h-2.576v3.081h-0.879V187.363z"/>
	<path fill="#FFFFFF" d="M262.138,187.363h3.667v0.737h-2.788v2.263h2.576v0.727h-2.576v3.081h-0.879V187.363z"/>
</g>
<path fill="none" d="M188.259,207.999c-1.366,2.219-2.058,5.092-2.058,8.116c0,6.337,3.433,12.014,9.461,12.014
	c6.073,0,9.505-5.589,9.505-12.322c0-5.896-3.081-12.058-9.461-12.058c-1.492,0-2.802,0.334-3.943,0.916l1.264,6.563
	L188.259,207.999z"/>
<path fill="#FFFFFF" d="M195.883,200.625c-1.688,0-3.274,0.295-4.738,0.827l0.619,3.213c1.141-0.581,2.451-0.916,3.943-0.916
	c6.381,0,9.461,6.161,9.461,12.058c0,6.733-3.433,12.322-9.505,12.322c-6.029,0-9.461-5.677-9.461-12.014
	c0-3.024,0.692-5.896,2.058-8.116l-3.075-2.082c-1.942,2.635-3.076,6.145-3.076,10.286c0,8.977,5.501,15.05,13.334,15.05
	c7.569,0,13.774-5.413,13.774-15.622C209.217,206.83,203.98,200.625,195.883,200.625z"/>
<polygon fill="#FFFFFF" points="180.713,248.243 187.767,246.885 189.125,253.938 "/>
</svg>
